<mxfile host="app.diagrams.net" modified="2024-03-14T13:17:57.455Z" agent="Mozilla/5.0 (X11; Ubuntu; Linux x86_64; rv:123.0) Gecko/20100101 Firefox/123.0" version="24.0.6" etag="wGyArZlmTJYmfTQdMG-4" type="github">
  <diagram name="Page-1" id="x0iL-71vW4XDMlO-CBLY">
    <mxGraphModel>
      <root>
        <mxCell id="0" />
        <mxCell id="1" parent="0" />
      </root>
    </mxGraphModel>
  </diagram>
</mxfile>
